<svg xmlns="http://www.w3.org/2000/svg" viewBox="0 0 260.49 181.1"><defs><style>.cls-1{fill:#612581;}.cls-2{fill:#1d9cd8;}.cls-3{font-size:24px;fill:#1d1d1b;font-family:Raleway-Medium, Raleway;font-weight:500;}.cls-4{letter-spacing:-0.02em;}.cls-5{letter-spacing:-0.01em;}.cls-6{letter-spacing:-0.03em;}.cls-7{letter-spacing:-0.01em;}.cls-8{letter-spacing:-0.03em;}</style></defs><g id="logos"><polygon class="cls-1" points="110.88 22.68 84.42 22.68 84.42 0 160.01 0 160.01 22.68 133.55 22.68 133.55 113.39 110.88 113.39 110.88 22.68"/><rect class="cls-2" x="137.33" y="26.46" width="22.68" height="86.93"/><path class="cls-2" d="M84.42,81.26A9.45,9.45,0,0,1,75,90.71v22.68A32.14,32.14,0,0,0,107.1,81.26V26.46H84.42Z"/><text class="cls-3" transform="translate(5.54 147.35)">JORNA<tspan class="cls-4" x="80.09" y="0">D</tspan><tspan class="cls-5" x="96.67" y="0">A</tspan><tspan x="112.68" y="0">S</tspan><tspan class="cls-6" x="127.29" y="0"> </tspan><tspan x="132.65" y="0">T</tspan><tspan class="cls-7" x="147.38" y="0">É</tspan><tspan x="161.57" y="0">CNI</tspan><tspan class="cls-5" x="202.65" y="0">CA</tspan><tspan x="234.79" y="0">S</tspan><tspan x="39.25" y="28.35">DE INGENIERÍ</tspan><tspan class="cls-8" x="194.65" y="28.35">A</tspan></text></g></svg>