<svg xmlns="http://www.w3.org/2000/svg" viewBox="0 0 310.09 124.47"><defs><style>.cls-1{font-size:31.91px;font-family:Raleway-Medium, Raleway;font-weight:500;}.cls-1,.cls-7{fill:#fff;}.cls-2{letter-spacing:-0.03em;}.cls-3{letter-spacing:-0.01em;}.cls-4{letter-spacing:-0.01em;}.cls-5{letter-spacing:-0.01em;}.cls-6{letter-spacing:-0.03em;}</style></defs><g id="logos"><text class="cls-1" transform="translate(96.53 27.29)">JORNA<tspan class="cls-2" x="106.5" y="0">D</tspan><tspan class="cls-3" x="128.55" y="0">A</tspan><tspan x="149.83" y="0">S </tspan><tspan x="0" y="45">T</tspan><tspan class="cls-4" x="19.59" y="45">É</tspan><tspan x="38.46" y="45">CNI</tspan><tspan class="cls-5" x="93.09" y="45">CA</tspan><tspan x="135.82" y="45">S DE </tspan><tspan x="0" y="90">INGENIERÍ</tspan><tspan class="cls-6" x="156.41" y="90">A</tspan></text><polygon class="cls-7" points="35.91 26.73 9.45 26.73 9.45 4.06 85.04 4.06 85.04 26.73 58.58 26.73 58.58 117.44 35.91 117.44 35.91 26.73"/><rect class="cls-7" x="62.36" y="30.51" width="22.68" height="86.93"/><path class="cls-7" d="M9.45,85.32A9.45,9.45,0,0,1,0,94.76v22.68A32.13,32.13,0,0,0,32.13,85.32V30.51H9.45Z"/></g></svg>