<svg xmlns="http://www.w3.org/2000/svg" viewBox="0 0 307.62 125.09"><defs><style>.cls-1{font-size:31.91px;font-family:Raleway-Medium, Raleway;font-weight:500;}.cls-1,.cls-10{fill:#fff;}.cls-2{letter-spacing:0.11em;}.cls-3{letter-spacing:0.08em;}.cls-4{letter-spacing:0.1em;}.cls-5{letter-spacing:-0.01em;}.cls-6{letter-spacing:-0.01em;}.cls-7{letter-spacing:0.1em;}.cls-8{letter-spacing:0.11em;}.cls-9{letter-spacing:0.08em;}</style></defs><g id="logos"><text class="cls-1" transform="translate(96.38 27.29)"><tspan class="cls-2">JORNA<tspan class="cls-3" x="123.41" y="0">D</tspan><tspan class="cls-4" x="148.84" y="0">A</tspan><tspan x="173.51" y="0">S</tspan></tspan><tspan x="0" y="45.31">T</tspan><tspan class="cls-5" x="19.59" y="45.31">É</tspan><tspan x="38.46" y="45.31">CNI</tspan><tspan class="cls-6" x="93.09" y="45.31">CA</tspan><tspan x="135.82" y="45.31">S</tspan><tspan class="cls-7" x="155.26" y="45.31"> </tspan><tspan x="166.65" y="45.31">DE</tspan><tspan class="cls-2"><tspan x="0" y="90.62">INGENIE</tspan><tspan class="cls-8" x="150.82" y="90.62">RÍ</tspan><tspan class="cls-9" x="187.11" y="90.62">A</tspan></tspan></text><polygon class="cls-10" points="35.91 27.21 9.45 27.21 9.45 4.53 85.04 4.53 85.04 27.21 58.58 27.21 58.58 117.92 35.91 117.92 35.91 27.21"/><rect class="cls-10" x="62.36" y="30.99" width="22.68" height="86.93"/><path class="cls-10" d="M9.45,85.79A9.45,9.45,0,0,1,0,95.24v22.68A32.13,32.13,0,0,0,32.13,85.79V31H9.45Z"/></g></svg>